<mxfile host="app.diagrams.net" modified="2021-04-16T10:13:16.311Z" agent="5.0 (Windows NT 10.0; Win64; x64) AppleWebKit/537.36 (KHTML, like Gecko) Chrome/89.0.4389.114 Safari/537.36 Edg/89.0.774.76" etag="zPj25WXnygS9b50Z4Gen" version="14.6.1" type="github">
  <diagram id="XL6aL3diKBtOu2nn48kT" name="Page-1">
    <mxGraphModel dx="2249" dy="1963" grid="1" gridSize="10" guides="1" tooltips="1" connect="1" arrows="1" fold="1" page="1" pageScale="1" pageWidth="827" pageHeight="1169" math="0" shadow="0">
      <root>
        <mxCell id="0" />
        <mxCell id="1" parent="0" />
        <mxCell id="3zyboHyzZbom233ZzuhM-11" value="" style="rounded=0;whiteSpace=wrap;html=1;" parent="1" vertex="1">
          <mxGeometry x="-80" y="-140" width="710" height="600" as="geometry" />
        </mxCell>
        <mxCell id="3zyboHyzZbom233ZzuhM-3" value="数据分发模块" style="rounded=0;whiteSpace=wrap;html=1;" parent="1" vertex="1">
          <mxGeometry x="1240" y="580" width="90" height="40" as="geometry" />
        </mxCell>
        <mxCell id="3zyboHyzZbom233ZzuhM-7" value="协议解析模块" style="rounded=0;whiteSpace=wrap;html=1;" parent="1" vertex="1">
          <mxGeometry x="1120" y="580" width="90" height="40" as="geometry" />
        </mxCell>
        <mxCell id="6aZpRVK1wGklk4xLISPi-1" value="" style="rounded=0;whiteSpace=wrap;html=1;" parent="1" vertex="1">
          <mxGeometry x="230" y="830" width="1280" height="720" as="geometry" />
        </mxCell>
        <mxCell id="6aZpRVK1wGklk4xLISPi-2" value="&amp;nbsp; &amp;nbsp; 状态栏" style="rounded=0;whiteSpace=wrap;html=1;fontSize=25;align=center;" parent="1" vertex="1">
          <mxGeometry x="240" y="840" width="1260" height="50" as="geometry" />
        </mxCell>
        <mxCell id="6aZpRVK1wGklk4xLISPi-7" value="按&lt;br&gt;键&lt;br&gt;区" style="rounded=0;whiteSpace=wrap;html=1;fontSize=25;" parent="1" vertex="1">
          <mxGeometry x="1440" y="900" width="60" height="310" as="geometry" />
        </mxCell>
        <mxCell id="6aZpRVK1wGklk4xLISPi-8" value="仪表盘" style="rounded=0;whiteSpace=wrap;html=1;fontSize=25;" parent="1" vertex="1">
          <mxGeometry x="240" y="896" width="290" height="190" as="geometry" />
        </mxCell>
        <mxCell id="6aZpRVK1wGklk4xLISPi-9" value="其他数据" style="rounded=0;whiteSpace=wrap;html=1;fontSize=25;" parent="1" vertex="1">
          <mxGeometry x="240" y="1086" width="290" height="120" as="geometry" />
        </mxCell>
        <mxCell id="6aZpRVK1wGklk4xLISPi-10" value="图像显示" style="rounded=0;whiteSpace=wrap;html=1;fontSize=25;" parent="1" vertex="1">
          <mxGeometry x="242.5" y="1360" width="290" height="180" as="geometry" />
        </mxCell>
        <mxCell id="6aZpRVK1wGklk4xLISPi-11" value="&lt;font style=&quot;font-size: 25px&quot;&gt;数字地图&lt;/font&gt;" style="rounded=0;whiteSpace=wrap;html=1;" parent="1" vertex="1">
          <mxGeometry x="230" y="1610" width="1280" height="720" as="geometry" />
        </mxCell>
        <mxCell id="6aZpRVK1wGklk4xLISPi-12" value="&amp;nbsp; &amp;nbsp; 状态栏" style="rounded=0;whiteSpace=wrap;html=1;fontSize=25;align=center;" parent="1" vertex="1">
          <mxGeometry x="240" y="1620" width="1260" height="50" as="geometry" />
        </mxCell>
        <mxCell id="6aZpRVK1wGklk4xLISPi-13" value="按&lt;br&gt;键&lt;br&gt;区" style="rounded=0;whiteSpace=wrap;html=1;fontSize=25;" parent="1" vertex="1">
          <mxGeometry x="1440" y="1680" width="60" height="310" as="geometry" />
        </mxCell>
        <mxCell id="6aZpRVK1wGklk4xLISPi-14" value="航点信息列表" style="rounded=0;whiteSpace=wrap;html=1;fontSize=25;" parent="1" vertex="1">
          <mxGeometry x="240" y="2130" width="1260" height="190" as="geometry" />
        </mxCell>
        <mxCell id="6aZpRVK1wGklk4xLISPi-15" value="任务装订&lt;br&gt;功能选择" style="rounded=0;whiteSpace=wrap;html=1;fontSize=25;" parent="1" vertex="1">
          <mxGeometry x="240" y="1680" width="180" height="430" as="geometry" />
        </mxCell>
        <mxCell id="6aZpRVK1wGklk4xLISPi-16" value="&lt;font style=&quot;font-size: 25px&quot;&gt;图像显示&lt;/font&gt;" style="rounded=0;whiteSpace=wrap;html=1;" parent="1" vertex="1">
          <mxGeometry x="230" y="2380" width="1280" height="720" as="geometry" />
        </mxCell>
        <mxCell id="6aZpRVK1wGklk4xLISPi-17" value="数字地图" style="rounded=0;whiteSpace=wrap;html=1;fontSize=25;" parent="1" vertex="1">
          <mxGeometry x="240" y="2910" width="290" height="180" as="geometry" />
        </mxCell>
        <mxCell id="6aZpRVK1wGklk4xLISPi-18" value="&amp;nbsp; &amp;nbsp; 状态栏" style="rounded=0;whiteSpace=wrap;html=1;fontSize=25;align=center;" parent="1" vertex="1">
          <mxGeometry x="240" y="2390" width="1260" height="50" as="geometry" />
        </mxCell>
        <mxCell id="6aZpRVK1wGklk4xLISPi-19" value="按&lt;br&gt;键&lt;br&gt;区" style="rounded=0;whiteSpace=wrap;html=1;fontSize=25;" parent="1" vertex="1">
          <mxGeometry x="1440" y="2450" width="60" height="310" as="geometry" />
        </mxCell>
        <mxCell id="6aZpRVK1wGklk4xLISPi-20" value="仪表盘" style="rounded=0;whiteSpace=wrap;html=1;fontSize=25;" parent="1" vertex="1">
          <mxGeometry x="240" y="2450" width="290" height="190" as="geometry" />
        </mxCell>
        <mxCell id="6aZpRVK1wGklk4xLISPi-21" value="其他数据" style="rounded=0;whiteSpace=wrap;html=1;fontSize=25;" parent="1" vertex="1">
          <mxGeometry x="240" y="2640" width="290" height="120" as="geometry" />
        </mxCell>
        <mxCell id="ft3g9Wl8zvMS7nC5u-6V-1" value="" style="triangle;whiteSpace=wrap;html=1;rotation=-90;" parent="1" vertex="1">
          <mxGeometry x="940" y="630" width="60" height="130" as="geometry" />
        </mxCell>
        <mxCell id="HP3ZWItXDYjTHHl5LXWt-4" value="" style="group" vertex="1" connectable="0" parent="1">
          <mxGeometry x="1169" y="10" width="271" height="250" as="geometry" />
        </mxCell>
        <mxCell id="HP3ZWItXDYjTHHl5LXWt-3" value="&lt;font style=&quot;font-size: 18px&quot;&gt;功能层&lt;br&gt;&lt;br&gt;&lt;br&gt;&lt;br&gt;&lt;br&gt;应用程序功能&lt;br&gt;响应状态变化&lt;br&gt;&lt;br&gt;&lt;br&gt;&lt;/font&gt;" style="rounded=0;whiteSpace=wrap;html=1;fillColor=#dae8fc;strokeColor=#6c8ebf;" vertex="1" parent="HP3ZWItXDYjTHHl5LXWt-4">
          <mxGeometry width="271" height="250" as="geometry" />
        </mxCell>
        <mxCell id="3zyboHyzZbom233ZzuhM-4" value="数据监控模块" style="rounded=0;whiteSpace=wrap;html=1;fontSize=15;fillColor=#f5f5f5;strokeColor=#666666;fontColor=#333333;" parent="HP3ZWItXDYjTHHl5LXWt-4" vertex="1">
          <mxGeometry x="1" y="80" width="99" height="40" as="geometry" />
        </mxCell>
        <mxCell id="3zyboHyzZbom233ZzuhM-6" value="任务装订模块" style="rounded=0;whiteSpace=wrap;html=1;fontSize=15;fillColor=#f5f5f5;strokeColor=#666666;fontColor=#333333;" parent="HP3ZWItXDYjTHHl5LXWt-4" vertex="1">
          <mxGeometry x="100" y="80" width="100" height="40" as="geometry" />
        </mxCell>
        <mxCell id="3zyboHyzZbom233ZzuhM-10" value="扩展模块" style="rounded=0;whiteSpace=wrap;html=1;fontSize=15;fillColor=#f5f5f5;strokeColor=#666666;fontColor=#333333;" parent="HP3ZWItXDYjTHHl5LXWt-4" vertex="1">
          <mxGeometry x="200" y="80" width="70" height="40" as="geometry" />
        </mxCell>
        <mxCell id="HP3ZWItXDYjTHHl5LXWt-5" value="" style="group" vertex="1" connectable="0" parent="1">
          <mxGeometry x="760" y="10" width="271" height="250" as="geometry" />
        </mxCell>
        <mxCell id="7bwwpkhhdbi9v0hprMws-1" value="&lt;font style=&quot;font-size: 18px&quot;&gt;用户界面层&lt;br&gt;&lt;br&gt;&lt;br&gt;&lt;br&gt;&lt;br&gt;用户动作映射&lt;br&gt;选择响应视图&lt;br&gt;&lt;br&gt;&lt;br&gt;&lt;/font&gt;" style="rounded=0;whiteSpace=wrap;html=1;fillColor=#dae8fc;strokeColor=#6c8ebf;" parent="HP3ZWItXDYjTHHl5LXWt-5" vertex="1">
          <mxGeometry width="271" height="250" as="geometry" />
        </mxCell>
        <mxCell id="7bwwpkhhdbi9v0hprMws-2" value="&lt;font style=&quot;font-size: 16px&quot;&gt;Ui管理模块&lt;/font&gt;" style="rounded=0;whiteSpace=wrap;html=1;fillColor=#f5f5f5;strokeColor=#666666;fontColor=#333333;" parent="HP3ZWItXDYjTHHl5LXWt-5" vertex="1">
          <mxGeometry x="85" y="80" width="101" height="40" as="geometry" />
        </mxCell>
        <mxCell id="HP3ZWItXDYjTHHl5LXWt-7" value="" style="group" vertex="1" connectable="0" parent="1">
          <mxGeometry x="970" y="300" width="270" height="240" as="geometry" />
        </mxCell>
        <mxCell id="HP3ZWItXDYjTHHl5LXWt-1" value="&lt;font style=&quot;font-size: 18px&quot;&gt;数据层&lt;br&gt;&lt;/font&gt;" style="rounded=0;whiteSpace=wrap;html=1;fillColor=#dae8fc;strokeColor=#6c8ebf;" vertex="1" parent="HP3ZWItXDYjTHHl5LXWt-7">
          <mxGeometry width="270" height="40" as="geometry" />
        </mxCell>
        <mxCell id="3zyboHyzZbom233ZzuhM-9" value="&lt;font style=&quot;font-size: 18px&quot;&gt;数据存储层&lt;br&gt;&lt;br&gt;&lt;br&gt;&lt;/font&gt;" style="rounded=0;whiteSpace=wrap;html=1;fillColor=#dae8fc;strokeColor=#6c8ebf;" parent="HP3ZWItXDYjTHHl5LXWt-7" vertex="1">
          <mxGeometry y="140" width="270" height="100" as="geometry" />
        </mxCell>
        <mxCell id="3zyboHyzZbom233ZzuhM-1" value="&lt;font style=&quot;font-size: 18px&quot;&gt;数据传输层&lt;br&gt;&lt;br&gt;&lt;br&gt;&lt;/font&gt;" style="rounded=0;whiteSpace=wrap;html=1;fillColor=#dae8fc;strokeColor=#6c8ebf;" parent="HP3ZWItXDYjTHHl5LXWt-7" vertex="1">
          <mxGeometry y="40" width="270" height="100" as="geometry" />
        </mxCell>
        <mxCell id="3zyboHyzZbom233ZzuhM-2" value="数据库管理模块" style="rounded=0;whiteSpace=wrap;html=1;fontSize=15;fillColor=#f5f5f5;strokeColor=#666666;fontColor=#333333;direction=south;" parent="HP3ZWItXDYjTHHl5LXWt-7" vertex="1">
          <mxGeometry x="72.5" y="190" width="125" height="40" as="geometry" />
        </mxCell>
        <mxCell id="3zyboHyzZbom233ZzuhM-8" value="通信模块" style="rounded=0;whiteSpace=wrap;html=1;fontSize=15;fillColor=#f5f5f5;strokeColor=#666666;fontColor=#333333;" parent="HP3ZWItXDYjTHHl5LXWt-7" vertex="1">
          <mxGeometry x="80" y="90" width="90" height="40" as="geometry" />
        </mxCell>
        <mxCell id="HP3ZWItXDYjTHHl5LXWt-8" value="" style="endArrow=classic;html=1;exitX=1;exitY=0.25;exitDx=0;exitDy=0;entryX=0;entryY=0.25;entryDx=0;entryDy=0;" edge="1" parent="1" source="7bwwpkhhdbi9v0hprMws-1" target="HP3ZWItXDYjTHHl5LXWt-3">
          <mxGeometry width="50" height="50" relative="1" as="geometry">
            <mxPoint x="1090" y="100" as="sourcePoint" />
            <mxPoint x="1140" y="50" as="targetPoint" />
          </mxGeometry>
        </mxCell>
        <mxCell id="HP3ZWItXDYjTHHl5LXWt-9" value="用户请求" style="edgeLabel;html=1;align=center;verticalAlign=middle;resizable=0;points=[];" vertex="1" connectable="0" parent="HP3ZWItXDYjTHHl5LXWt-8">
          <mxGeometry x="0.1884" y="1" relative="1" as="geometry">
            <mxPoint x="-8" y="-11" as="offset" />
          </mxGeometry>
        </mxCell>
      </root>
    </mxGraphModel>
  </diagram>
</mxfile>
